<?xml version="1.0" encoding="UTF-8" standalone="no"?>
<!DOCTYPE svg PUBLIC "-//W3C//DTD SVG 1.1//EN" "http://www.w3.org/Graphics/SVG/1.1/DTD/svg11.dtd">
<svg width="100%" height="100%" viewBox="0 0 1024 1024" version="1.1" xmlns="http://www.w3.org/2000/svg" xmlns:xlink="http://www.w3.org/1999/xlink" xml:space="preserve" xmlns:serif="http://www.serif.com/" style="fill-rule:evenodd;clip-rule:evenodd;stroke-linejoin:round;stroke-miterlimit:2;">
    <g transform="matrix(0.86927,0,0,0.864865,0,0)">
        <path d="M589,148C589,66.317 523.019,0 441.75,0L147.25,0C65.981,0 0,66.317 0,148L0,444C0,525.683 65.981,592 147.25,592L441.75,592C523.019,592 589,525.683 589,444L589,148Z" style="fill:rgb(255,194,85);"/>
        <path d="M589,148C589,66.317 523.019,0 441.75,0L147.25,0C65.981,0 0,66.317 0,148L0,444C0,525.683 65.981,592 147.25,592L441.75,592C523.019,592 589,525.683 589,444L589,148ZM519.977,148L519.977,444C519.977,487.394 484.924,522.625 441.75,522.625L147.25,522.625C104.076,522.625 69.023,487.394 69.023,444L69.023,148C69.023,104.606 104.076,69.375 147.25,69.375L441.75,69.375C484.924,69.375 519.977,104.606 519.977,148Z" style="fill:white;"/>
    </g>
    <g transform="matrix(0.86927,0,0,0.864865,512,0)">
        <path d="M589,148C589,66.317 523.019,0 441.75,0L147.25,0C65.981,0 0,66.317 0,148L0,444C0,525.683 65.981,592 147.25,592L441.75,592C523.019,592 589,525.683 589,444L589,148Z" style="fill:rgb(159,159,159);"/>
        <path d="M589,148C589,66.317 523.019,0 441.75,0L147.25,0C65.981,0 0,66.317 0,148L0,444C0,525.683 65.981,592 147.25,592L441.75,592C523.019,592 589,525.683 589,444L589,148ZM519.977,148L519.977,444C519.977,487.394 484.924,522.625 441.75,522.625L147.25,522.625C104.076,522.625 69.023,487.394 69.023,444C69.023,444 69.023,148 69.023,148C69.023,104.606 104.076,69.375 147.25,69.375L441.75,69.375C484.924,69.375 519.977,104.606 519.977,148Z" style="fill:white;"/>
    </g>
    <g transform="matrix(0.86927,0,0,0.864865,0,512)">
        <path d="M589,148C589,66.317 523.019,0 441.75,0L147.25,0C65.981,0 0,66.317 0,148L0,444C0,525.683 65.981,592 147.25,592L441.75,592C523.019,592 589,525.683 589,444L589,148Z" style="fill:rgb(159,159,159);"/>
        <path d="M589,148C589,66.317 523.019,0 441.75,0L147.25,0C65.981,0 0,66.317 0,148L0,444C0,525.683 65.981,592 147.25,592L441.75,592C523.019,592 589,525.683 589,444L589,148ZM519.977,148L519.977,444C519.977,487.394 484.924,522.625 441.75,522.625L147.25,522.625C104.076,522.625 69.023,487.394 69.023,444L69.023,148C69.023,104.606 104.076,69.375 147.25,69.375C147.25,69.375 441.75,69.375 441.75,69.375C484.924,69.375 519.977,104.606 519.977,148Z" style="fill:white;"/>
    </g>
    <g transform="matrix(0.86927,0,0,0.864865,512,512)">
        <path d="M589,148C589,66.317 523.019,0 441.75,0L147.25,0C65.981,0 0,66.317 0,148L0,444C0,525.683 65.981,592 147.25,592L441.75,592C523.019,592 589,525.683 589,444L589,148Z" style="fill:rgb(159,159,159);"/>
        <path d="M589,148C589,66.317 523.019,0 441.75,0L147.25,0C65.981,0 0,66.317 0,148L0,444C0,525.683 65.981,592 147.25,592L441.75,592C523.019,592 589,525.683 589,444L589,148ZM519.977,148L519.977,444C519.977,487.394 484.924,522.625 441.75,522.625L147.25,522.625C104.076,522.625 69.023,487.394 69.023,444C69.023,444 69.023,148 69.023,148C69.023,104.606 104.076,69.375 147.25,69.375C147.25,69.375 441.75,69.375 441.75,69.375C484.924,69.375 519.977,104.606 519.977,148Z" style="fill:white;"/>
    </g>
</svg>
